<?xml version="1.0" encoding="UTF-8"?><svg id="Layer_1" xmlns="http://www.w3.org/2000/svg" xmlns:xlink="http://www.w3.org/1999/xlink" viewBox="0 0 242.74 53.27"><defs><style>.cls-1{fill:url(#linear-gradient);}.cls-1,.cls-2{stroke-width:0px;}.cls-2{fill:#fff;}</style><linearGradient id="linear-gradient" x1="18.1" y1="21.48" x2="242.74" y2="21.48" gradientUnits="userSpaceOnUse"><stop offset="0" stop-color="#fff" stop-opacity="0"/><stop offset=".48" stop-color="#fff"/></linearGradient></defs><path class="cls-2" d="m14.38,44.19c.43,0,.81-.11,1.13-.33.32-.22.55-.71.68-1.47.13-.76.29-1.22.46-1.38.17-.16.39-.24.63-.24.18,0,.36.1.54.31s.28.48.28.82c0,1.11.07,2.21.21,3.32,0,.69-.3,1-.91.94-.4-.05-1.01-.08-1.84-.08H1.93c-1.07,0-1.61-.3-1.61-.91,0-.4.1-.65.29-.76s.49-.17.88-.18c.76-.05,1.23-.27,1.42-.66.19-.39.28-.83.28-1.33v-20.03c0-.47-.1-.89-.31-1.27-.21-.38-.67-.68-1.38-.93-.71-.24-1.13-.47-1.28-.67-.15-.21-.22-.44-.22-.71,0-.15.09-.3.26-.44s.38-.22.63-.22c.16,0,.56.12,1.18.35.62.24,1.31.35,2.07.35.94,0,1.84-.13,2.67-.39s1.38-.39,1.63-.39c.27,0,.5.1.71.31.2.21.31.44.31.69,0,.21-.06.39-.18.54-.12.15-.44.27-.95.39-.65.14-1.12.33-1.38.57-.46.42-.68,1.13-.68,2.14v19.11c0,.95.14,1.62.41,1.99.27.37.68.55,1.2.55h6.51Z"/><path class="cls-2" d="m32.14,42.51c0,.92.56,1.55,1.68,1.91.28.09.49.19.62.31.13.12.2.33.2.66,0,.17-.09.31-.27.44-.18.12-.38.18-.59.18-.22,0-.52-.06-.9-.17-.38-.11-.69-.17-.92-.17-.27,0-.61.06-1.02.17-.41.11-.68.17-.82.17-.16,0-.32-.06-.48-.19-.16-.13-.24-.25-.24-.38,0-.2-.06-.31-.17-.31-.08,0-.19.04-.32.13-1.32.89-2.74,1.34-4.27,1.34-.72,0-1.53-.2-2.43-.61-.89-.41-1.61-1.03-2.15-1.88-.54-.85-.81-1.89-.81-3.14,0-1.32.58-2.49,1.74-3.51,1.16-1.02,2.65-1.53,4.48-1.53.62,0,1.3.19,2.04.56.74.38,1.11.76,1.11,1.16,0,.19-.08.34-.23.46-.15.11-.34.17-.56.17-.15,0-.45-.11-.89-.34s-.9-.34-1.37-.34c-.96,0-1.75.31-2.38.92-.63.62-.95,1.44-.95,2.47,0,1.19.36,2.11,1.09,2.75s1.56.96,2.5.96c.85,0,1.64-.31,2.36-.92s1.08-1.43,1.08-2.44v-5.17c0-.78-.24-1.41-.71-1.89-.47-.48-1.1-.73-1.9-.73-1.01,0-2,.35-2.95,1.05-.33.24-.55.36-.66.36-.28,0-.52-.08-.72-.24-.2-.16-.3-.37-.3-.62,0-.62.52-1.15,1.57-1.58,1.04-.43,2.19-.65,3.42-.65,1.53,0,2.76.42,3.7,1.26.93.84,1.4,1.84,1.4,2.99v6.41Z"/><path class="cls-2" d="m42.43,44.55c.48,0,.72-.24.72-.71v-.52c0-.7.22-1.05.67-1.05.29,0,.52.15.66.44.15.29.22.91.22,1.84,0,.59-.04.96-.11,1.12-.08.16-.27.26-.57.3-.3.04-.93.06-1.87.06h-5.24c-.67,0-1-.22-1-.67,0-.32.16-.81.49-1.47l3.98-8.02c.19-.42.28-.74.28-.97,0-.27-.07-.43-.2-.49-.13-.06-.41-.08-.82-.08h-1.04c-.62,0-1,.04-1.12.13-.12.09-.25.4-.39.94s-.39.8-.75.8c-.4,0-.6-.31-.6-.94l-.03-1.36c0-.42.05-.71.16-.85.1-.15.27-.22.51-.22h7.58c.14,0,.26.06.37.18s.16.26.16.41c0,.27-.15.71-.46,1.34l-4.22,8.32c-.15.29-.23.56-.23.8,0,.45.23.67.7.67h2.15Z"/><path class="cls-2" d="m55.97,43.38c.3,0,.45.16.45.48,0,.4-.47.88-1.4,1.47s-1.86.88-2.78.88c-.63,0-1.31-.23-2.03-.7-.72-.46-1.17-1.04-1.35-1.73s-.27-1.94-.27-3.75l.04-3.83c0-1.03-.42-1.64-1.26-1.83-.49-.1-.8-.2-.94-.3s-.2-.29-.2-.57c0-.21.05-.38.16-.53.11-.15.25-.22.42-.22.16,0,.5.06,1,.18.5.12.83.18.97.18.16,0,.5-.06,1.02-.18.52-.12.84-.18.97-.18.08,0,.18.04.3.13s.18.18.2.29c.02.1.04.98.07,2.65s.04,3.2.04,4.59c0,1.07.03,1.84.1,2.32.07.48.29.86.65,1.16.36.3.85.45,1.45.45.45,0,.92-.16,1.41-.48.49-.32.81-.48.97-.48Zm3.27-10.63c.41,0,.62.31.62.94,0,1.23.02,3.04.05,5.4.04,2.37.05,3.96.05,4.77,0,2.85-.3,4.89-.91,6.12-.61,1.23-1.26,2.08-1.96,2.57-.7.48-1.55.73-2.55.73-.85,0-1.53-.13-2.03-.4-.5-.27-.75-.51-.75-.73,0-.1.05-.21.14-.33.09-.12.2-.18.33-.18.09,0,.28.06.57.19.29.13.61.19.97.19.65,0,1.29-.24,1.92-.71.62-.48,1.03-1.13,1.21-1.97.18-.84.27-2.09.27-3.75,0-5.97-.01-9.29-.04-9.96-.03-.67-.46-1.08-1.3-1.23-.84-.15-1.26-.45-1.26-.92s.3-.72.9-.72c.2,0,.56.04,1.08.11.52.08.95.11,1.29.11.26,0,.53-.04.81-.11.28-.08.48-.11.6-.11Z"/><path class="cls-2" d="m71.82,22.22c0-.74-.13-1.24-.39-1.51-.26-.27-.6-.48-1.02-.61s-.7-.26-.86-.39-.24-.36-.24-.7c0-.19.08-.35.24-.48s.34-.19.55-.19c.36,0,.91.06,1.64.19.73.13,1.29.19,1.68.19.35,0,.86-.06,1.55-.17.68-.11,1.19-.17,1.53-.17.58,0,.87.26.87.79,0,.32-.08.54-.23.66s-.46.22-.93.32c-.47.1-.81.36-1.02.8-.21.44-.31,1.08-.31,1.91v19.76c0,.37.08.69.24.98.16.29.51.51,1.05.67.54.16.87.32.99.5s.18.38.18.61c0,.46-.36.7-1.08.7-.33,0-.8-.06-1.43-.18s-1.11-.18-1.43-.18c-.3,0-.77.05-1.39.14-.62.1-1.09.14-1.41.14-.87,0-1.31-.3-1.31-.91,0-.17.05-.32.14-.44.09-.13.42-.25.99-.35s.94-.38,1.13-.82c.19-.44.28-.93.28-1.48v-19.76Z"/><path class="cls-2" d="m94.83,18.2c1.65,0,3.17.58,4.56,1.75,1.39,1.17,2.09,2.68,2.09,4.56,0,1.01-.32,1.89-.95,2.66-.63.77-1.5,1.37-2.61,1.79l-.26.19.26.13c2.14.38,3.96,1.39,5.47,3.02,1.51,1.63,2.26,3.53,2.26,5.71,0,2.33-.91,4.25-2.74,5.76-1.83,1.51-4.46,2.27-7.91,2.27-5.48,0-8.64-.03-9.48-.08-.85-.05-1.27-.31-1.27-.77,0-.23.06-.42.18-.58.12-.16.48-.28,1.08-.36.6-.08.98-.27,1.16-.57.18-.31.26-.67.26-1.09v-21.03c0-.5-.08-.9-.25-1.2-.16-.3-.54-.45-1.12-.45s-.97-.08-1.12-.25-.23-.39-.23-.68c0-.23.11-.41.34-.56.23-.14.51-.22.83-.22h9.45Zm-5,8.42c0,.95.25,1.54.75,1.77.5.22,1.29.33,2.38.33,1.52,0,2.79-.42,3.81-1.25,1.01-.83,1.52-1.95,1.52-3.35s-.5-2.38-1.5-3.12c-1-.74-2.28-1.12-3.83-1.12-1.21,0-2.03.13-2.47.4-.44.27-.66.78-.66,1.53v4.81Zm.16,15.62c0,.75.07,1.27.21,1.55.14.29.44.47.89.55.46.08,1.28.12,2.49.12,2.59,0,4.66-.63,6.19-1.9,1.54-1.26,2.3-3.01,2.3-5.25,0-2.08-.82-3.76-2.47-5.04-1.65-1.28-3.69-1.91-6.13-1.91-1.09,0-1.94.16-2.56.47-.62.31-.93.75-.93,1.32v10.07Z"/><path class="cls-2" d="m117.66,38.29c.27,0,.45-.05.54-.15.09-.1.14-.28.14-.55,0-.97-.35-1.88-1.04-2.73-.69-.85-1.74-1.27-3.14-1.27-.97,0-1.97.5-3,1.51-1.03,1-1.55,2.43-1.55,4.27,0,1.35.54,2.56,1.63,3.63,1.09,1.07,2.31,1.61,3.66,1.61,1.03,0,2.13-.35,3.32-1.05.45-.27.75-.4.89-.4.21,0,.38.06.5.19.12.13.18.29.18.48,0,.46-.65,1.03-1.94,1.69s-2.62.99-3.98.99c-2.02,0-3.72-.75-5.1-2.25-1.38-1.5-2.07-3.29-2.07-5.36,0-1.9.76-3.52,2.27-4.87s3.21-2.02,5.09-2.02c2.44,0,4.27.68,5.48,2.04,1.21,1.36,1.82,2.99,1.82,4.89,0,.41-.09.66-.28.75-.19.1-.53.14-1.03.14h-8.03c-.65,0-.98-.26-.98-.79s.34-.75,1.02-.75h5.59Z"/><path class="cls-2" d="m133.34,38.29c.27,0,.45-.05.54-.15s.14-.28.14-.55c0-.97-.35-1.88-1.04-2.73-.69-.85-1.74-1.27-3.14-1.27-.97,0-1.97.5-3,1.51-1.03,1-1.55,2.43-1.55,4.27,0,1.35.54,2.56,1.63,3.63,1.09,1.07,2.31,1.61,3.66,1.61,1.03,0,2.13-.35,3.32-1.05.45-.27.75-.4.89-.4.21,0,.38.06.5.19.12.13.18.29.18.48,0,.46-.64,1.03-1.94,1.69-1.29.66-2.62.99-3.98.99-2.02,0-3.72-.75-5.1-2.25-1.38-1.5-2.07-3.29-2.07-5.36,0-1.9.76-3.52,2.27-4.87s3.21-2.02,5.09-2.02c2.44,0,4.27.68,5.48,2.04s1.82,2.99,1.82,4.89c0,.41-.09.66-.28.75-.19.1-.53.14-1.03.14h-8.03c-.65,0-.98-.26-.98-.79s.34-.75,1.02-.75h5.59Z"/><path class="cls-2" d="m143.36,36.51l.07.53c.06,0,.33-.6.82-1.81.49-1.21.98-2.07,1.46-2.58.48-.51.98-.76,1.5-.76.4,0,.7.08.91.23.21.15.31.33.31.52,0,.33-.07.6-.21.8-.14.2-.39.45-.74.74-1.49,1.23-2.56,2.72-3.23,4.48s-.99,3.22-.99,4.39c0,.54.07.91.2,1.11.13.2.46.36.97.49.51.13.85.28,1,.43.15.15.23.34.23.54,0,.37-.21.56-.61.56-.33,0-.78-.06-1.36-.17-.58-.11-1.2-.17-1.87-.17-.45,0-.9.06-1.35.17-.46.11-.75.17-.88.17-.33,0-.59-.07-.79-.2-.2-.14-.3-.31-.3-.51,0-.16.05-.29.17-.42s.42-.28.94-.47c.51-.19.83-.38.95-.57.12-.19.18-.78.18-1.78v-5.79c0-.37-.08-.7-.24-.99-.16-.29-.47-.52-.95-.67s-.75-.3-.84-.41-.13-.25-.13-.39c0-.43.28-.64.83-.64.15,0,.41.03.76.1.36.06.61.1.75.1.12,0,.31-.03.57-.08s.58-.08.94-.08c.63,0,.95.73.95,2.2v.94Z"/><path class="cls-2" d="m167.92,35.86c.25-.62.38-1,.38-1.12,0-.2-.06-.36-.17-.49-.11-.12-.38-.2-.81-.24-.43-.04-.7-.11-.81-.22-.11-.11-.17-.26-.17-.44,0-.31.08-.53.24-.66.16-.12.42-.19.78-.19.11,0,.39.05.85.14.46.1.89.14,1.27.14.08,0,.34-.04.77-.12.43-.08.82-.12,1.16-.12.55,0,.83.23.83.69s-.38.72-1.14.84c-.62.08-1.16.72-1.61,1.94l-3.45,9.17c-.27.71-.54,1.07-.81,1.07s-.48-.18-.61-.52c-.13-.35-.21-.56-.24-.62l-3.5-6.83c-.19-.37-.35-.55-.48-.55-.12,0-.25.18-.38.55l-2.73,7.04-.09.23c-.2.55-.45.82-.74.82-.18,0-.32-.07-.42-.22-.11-.15-.24-.4-.41-.75l-4.19-9.36c-.54-1.19-1.1-1.79-1.7-1.79-.41,0-.72-.08-.95-.24-.22-.16-.33-.36-.33-.59,0-.53.3-.79.89-.79.56,0,1.08.05,1.55.16.48.11.86.16,1.15.16.15,0,.49-.05,1-.16.52-.11.84-.16.97-.16.43,0,.74.06.92.18.18.12.27.33.27.61,0,.32-.22.56-.65.72-.43.16-.65.4-.65.73,0,.15.12.49.35,1.01l2.34,5.09c.13.29.25.44.37.44.09,0,.2-.15.31-.44l2.49-6.32c.28-.74.49-1.23.62-1.48.14-.25.29-.37.45-.37.15,0,.36.24.6.73l3.76,7.45c.09.2.19.31.3.31s.2-.1.28-.31l2.1-5.1Z"/><path class="cls-2" d="m179.88,31.97c1.94,0,3.63.73,5.07,2.18,1.44,1.45,2.16,3.12,2.16,5.02,0,2.13-.69,3.86-2.07,5.19s-3.22,2-5.54,2c-1.82,0-3.46-.68-4.91-2.04-1.45-1.36-2.18-3.05-2.18-5.08s.64-3.63,1.92-5.09c1.28-1.46,3.13-2.19,5.54-2.19Zm.02,12.72c1.34,0,2.41-.53,3.21-1.58.8-1.06,1.2-2.39,1.2-4.01s-.43-2.9-1.29-3.91-1.95-1.53-3.27-1.53-2.41.5-3.15,1.5c-.75,1-1.12,2.29-1.12,3.87,0,1.74.41,3.12,1.24,4.14.83,1.02,1.89,1.53,3.17,1.53Z"/><path class="cls-2" d="m193.4,36.51l.07.53c.06,0,.33-.6.82-1.81.49-1.21.98-2.07,1.46-2.58.48-.51.98-.76,1.5-.76.4,0,.7.08.91.23.21.15.31.33.31.52,0,.33-.07.6-.21.8-.14.2-.39.45-.74.74-1.49,1.23-2.56,2.72-3.23,4.48s-.99,3.22-.99,4.39c0,.54.07.91.2,1.11.13.2.46.36.97.49.51.13.85.28,1,.43.15.15.23.34.23.54,0,.37-.21.56-.61.56-.33,0-.78-.06-1.36-.17-.58-.11-1.2-.17-1.87-.17-.45,0-.9.06-1.35.17-.46.11-.75.17-.88.17-.33,0-.59-.07-.79-.2-.2-.14-.3-.31-.3-.51,0-.16.05-.29.17-.42s.42-.28.94-.47c.51-.19.83-.38.95-.57.12-.19.18-.78.18-1.78v-5.79c0-.37-.08-.7-.24-.99-.16-.29-.47-.52-.95-.67s-.75-.3-.84-.41-.13-.25-.13-.39c0-.43.28-.64.83-.64.15,0,.41.03.76.1.36.06.61.1.75.1.12,0,.31-.03.57-.08s.58-.08.94-.08c.63,0,.95.73.95,2.2v.94Z"/><path class="cls-2" d="m213.21,43.42c.25.32.57.48.96.48.22,0,.48-.19.78-.57.3-.38.55-.57.74-.57.18,0,.34.09.47.27.14.18.21.38.21.58,0,.65-.32,1.28-.97,1.91-.64.63-1.27.94-1.86.94-.54,0-1.17-.29-1.91-.86-.73-.57-1.81-1.77-3.22-3.6-1.02-1.32-1.64-1.98-1.86-1.98-.08,0-.24.12-.47.37-.23.25-.48.51-.75.77-.27.27-.42.48-.45.63-.03.15-.04.6-.04,1.36,0,.34.08.64.24.88.16.24.51.4,1.05.49.54.08.88.21,1,.37.12.16.18.36.18.59,0,.19-.05.34-.16.45s-.34.16-.7.16-.87-.05-1.56-.14c-.69-.1-1.21-.14-1.56-.14-.33,0-.81.05-1.44.14-.63.1-1.11.14-1.44.14-.74,0-1.11-.24-1.11-.73,0-.23.06-.42.18-.57.12-.15.47-.26,1.06-.33s.97-.26,1.15-.58c.17-.32.26-.69.26-1.13v-20.78c0-.36-.08-.66-.25-.92-.17-.25-.55-.46-1.13-.61-.58-.15-.94-.31-1.07-.46-.13-.15-.19-.34-.19-.56,0-.19.1-.35.3-.48s.4-.19.6-.19.5.06.91.17c.4.11.72.17.96.17.26,0,.58-.04.97-.13s.64-.13.77-.13c.23,0,.41.06.53.19.14.15.25.49.33,1.02.08.53.11,1.63.11,3.29v15.04c0,.32.1.48.32.48.14,0,.61-.45,1.42-1.35l2.31-2.58c.13-.13.19-.23.19-.32,0-.08-.14-.18-.42-.3-.28-.12-.42-.31-.42-.57,0-.27.06-.47.17-.6.11-.13.35-.19.71-.19.23,0,.58.03,1.06.09.47.06.84.09,1.09.09.31,0,.79-.04,1.44-.12.65-.08,1.13-.12,1.44-.12.34,0,.63.08.88.23.25.15.38.37.38.64,0,.5-.43.75-1.3.75-1.27,0-2.15.11-2.63.34-.48.23-1.02.67-1.63,1.33-.6.66-.94,1.03-1.01,1.13s-.1.22-.1.39c0,.32.13.63.4.94l4.11,4.81Z"/><path class="cls-2" d="m220.41,34.98c0,.29.12.59.38.9.25.3,1.05.84,2.4,1.62,1.35.77,2.26,1.54,2.73,2.28.47.75.71,1.53.71,2.36,0,1.29-.49,2.31-1.48,3.08-.99.76-2.26,1.15-3.83,1.15-.86,0-1.73-.21-2.58-.62-.86-.41-1.29-.83-1.29-1.25,0-.35-.02-.77-.07-1.28s-.07-.91-.07-1.22c0-.63.27-.94.8-.94.15,0,.29.07.43.21.13.14.33.61.61,1.4s.62,1.34,1.02,1.63.85.44,1.35.44c.62,0,1.14-.22,1.57-.67.43-.44.64-1.02.64-1.72,0-.46-.15-.89-.44-1.29s-1.09-.94-2.38-1.61c-1.3-.67-2.14-1.33-2.53-1.97-.39-.64-.58-1.34-.58-2.09,0-.99.42-1.82,1.27-2.5.85-.67,1.83-1.01,2.95-1.01.93,0,1.84.18,2.73.53.89.35,1.33.73,1.33,1.13,0,.24.02.54.07.9.05.36.07.64.07.86,0,.27-.06.5-.19.71-.12.2-.28.31-.47.31-.27,0-.46-.07-.58-.22s-.21-.41-.31-.78c-.09-.37-.24-.67-.45-.88-.21-.22-.49-.42-.83-.6s-.74-.27-1.16-.27-.84.15-1.22.45c-.39.3-.58.62-.58.96Z"/><path class="cls-1" d="m242.22,37.38c-1.43.27-1.54,2.57-3,1.82-1.09-.56-.8-2.14-1.05-3.28-.62-2.78-1.37-5.46-3.52-7.58-1-.98-2.4-1.14-3.36-2.31-2.28-2.77-3.24-2.7-6.05-.27-2.01,1.74-4.28,1.69-5.53-.62-1.29-2.37-2.83-2.58-5.13-1.94-3.77,1.05-4.65.45-5.56-3.46-.62-2.69-1.1-5.43-2.24-7.96-.84-1.85-1.59-4.36-3.9-4.37-2.58,0-3.03,2.66-3.75,4.67-.06.16-.08.34-.14.5-1.21,3.29-1.63,3.28-4.71,1.36-1.48-.92-2.92-2.91-5.29-.84-4.77,4.17-9.93,7.88-15.17,11.47-1.57,1.08-4.41,2.43-5.84,2.68-7.67,1.34-13.22-.31-20.48-2.98-3.77-1.38-7.32-3.27-10.5-5.5-.33-.23-.71-.46-1.12-.69,0,0-2.46-1.63-2.46-1.63-8.19-6.01-17.07-11.47-27.04-14.36C101.41.69,96.24-.02,91.09,0c-5.15.05-10.25.77-15.22,1.83-9.95,2.18-19.49,5.54-29.04,8.74-9.54,3.25-19.08,6.45-28.72,9.36l.26.88c9.71-2.72,19.34-5.73,28.95-8.77,9.61-3,19.2-6.15,29-8.08,4.89-.94,9.84-1.52,14.77-1.47,4.93.09,9.81.86,14.51,2.29,6.98,2.13,13.36,5.76,19.39,9.79,2.73,1.83,5.3,3.73,7.99,5.64,3.07,2.18,6.32,3.8,9.56,5.52l.1.06c6.72,3.57,14.13,5.78,21.78,5.65,2.27-.04,5.23-.38,7.31-1.45,2.58-1.33,4.63-2.96,6.9-4.6,2.42-1.74,4.84-3.48,7.28-5.2,2.75-1.93,5.31-4.57,9.13-1.51,1.16.93,3.07.68,4.25-1.18.7-1.1,1.28-2.22,1.86-3.37.39-.77.95-1.48,1.96-1.49,1.01,0,1.56.62,1.92,1.48.43,1.04.95,2.04,1.27,3.11.69,2.31,1.15,4.69,1.93,6.96,1.12,3.26,2.43,4,5.72,3.21,2.05-.49,3.4.04,4.72,1.67,1.91,2.37,4.35,2.52,6.76.62,1.12-.89,2.63-1.58,3.57-.78,2.52,2.16,6.2,3.25,7.07,7.06.36,1.59.83,3.16,1.28,4.74.63,2.24,2.2,2.85,4.09,1.61,2.02-1.33,1.27-3.1.82-4.95Z"/></svg>