<?xml version="1.0" encoding="UTF-8"?><svg id="Layer_1" xmlns="http://www.w3.org/2000/svg" viewBox="0 0 6000 2048.7"><defs><style>.cls-1{stroke-width:0px;}</style></defs><path class="cls-1" d="m6000,506.4v1542.3H0V694.59l116.61-62.27,34.19-19.5,64.46-36.77,40.7-39.13,36.13-58.22s70.97-57.14,80.27-65.04l.05-.05c1.09-.93,3.23-2.95,6.17-5.78,15.99-15.46,55.55-55.33,78.41-78.5,9.42-9.54,16-16.25,16.94-17.26,3.64-3.92,60.64-53.76,60.64-53.76l70.43-62.61,118.06-57.36,88.55-44.38,85.61-38.05,61.52-32.38S1021.35,1.61,1026.04.05c4.7-1.57,46.06,37.92,51.7,42.84,5.65,4.92,115.78,49.51,115.78,49.51l88.8,46.21,209.4,134.97,158.85,73.71,159.65,105.89,157.3,100.95s160.42-.43,169.98-2.56c9.51-2.12,284.81-141.7,286.96-142.79h.01s85.4,2.14,85.4,2.14l89.18-88.95,200.01-84.79,161.59-58.7,82.18,82.18,163.33,132.62,59.88,32.19,20.96,11.27,122.09,86.87,82.17,39.92,49.06,18.02,171.64-86.11,252.1-43.6,137.64-71.44s143.91-44.64,152.6-33.11c2.59,3.44,23.29,1.1,51.09-3.87,65.57-11.73,170.65-38.15,170.65-38.15l108.06-7.8,130.93,68.85,40.16,21.12,2.31.7,146.14,44.31,125.2,37.96,251.46-83.44,145.57-84.05,208.96-56.35,77.47,30.52,150.27,126.78,137.43,102.53Z"/></svg>